<svg xmlns="http://www.w3.org/2000/svg" width="315.537" height="74.668" viewBox="0 0 315.537 74.668">
  <g id="Group_204" data-name="Group 204" transform="translate(-241.463 -9067)">
    <g id="Layer_11" transform="translate(241.463 9068.298)">
      <path id="Path_15" d="M73.37,1.1H40.813a21.958,21.958,0,0,0-15.57,6.488L0,32.831H27.248a21.958,21.958,0,0,0,15.57-6.488l15.1-15.1A12.891,12.891,0,0,1,66.882,7.47h0a12.667,12.667,0,0,1-3.775,9.083l-15.1,15.1a22.165,22.165,0,0,0-6.488,15.57V74.47L66.764,49.227a22.165,22.165,0,0,0,6.488-15.57V1.1Z" transform="translate(0 -1.1)" fill="red"/>
    </g>
    <g id="Group_115" data-name="Group 115" transform="translate(326.628 9067)">
      <path id="Path_150" data-name="Path 150" d="M108.177,38.893,94.966,1.5H85.057L72.2,38.893h8.493l2.713-8.611H96.853l2.831,8.611ZM85.529,24.266h-.236l1.18-3.421c.708-2.359,1.415-4.836,2.123-7.549.472-1.769.944-3.657,1.415-5.544.472,2.005,1.062,3.775,1.533,5.544.708,2.713,1.533,5.308,2.241,7.549l1.18,3.421H85.529Z" transform="translate(-72.2 0.269)" fill="#fff"/>
      <rect id="Rectangle_131" data-name="Rectangle 131" width="7.431" height="27.72" transform="translate(66.882 11.442)" fill="#fff"/>
      <path id="Path_151" data-name="Path 151" d="M132.736,7.9a4.1,4.1,0,0,0,2.949-1.18l.236-.236a3.742,3.742,0,0,0-.236-5.308A4.654,4.654,0,0,0,132.736,0a4.1,4.1,0,0,0-2.949,1.18s-.118,0-.236.236a3.742,3.742,0,0,0,.236,5.308A4.654,4.654,0,0,0,132.736,7.9Z" transform="translate(-62.079)" fill="#fff"/>
      <path id="Path_152" data-name="Path 152" d="M117.6,23.973a44.174,44.174,0,0,0-1.415,5.308c-.118.708-.354,1.3-.472,2.005a9.989,9.989,0,0,0-.472-2.005c-.472-1.769-.944-3.539-1.533-5.308L109.1,9.7h-7.9l10.262,27.72h8.375L130.1,9.7h-7.9l-4.6,14.273Z" transform="translate(-66.992 1.742)" fill="#fff"/>
      <path id="Path_153" data-name="Path 153" d="M160.383,11.169a15.756,15.756,0,0,0-14.509,0,12.244,12.244,0,0,0-4.718,5.072,17.793,17.793,0,0,0,0,15.1,12.244,12.244,0,0,0,4.718,5.072,15.756,15.756,0,0,0,14.509,0A12.244,12.244,0,0,0,165.1,31.34a17.793,17.793,0,0,0,0-15.1A12.244,12.244,0,0,0,160.383,11.169ZM158.5,28.155A5.77,5.77,0,0,1,156.49,31.1a5.669,5.669,0,0,1-6.606,0,6.3,6.3,0,0,1-2.005-2.949,13.811,13.811,0,0,1,0-8.729,5.77,5.77,0,0,1,2.005-2.949,5.669,5.669,0,0,1,6.606,0,6.3,6.3,0,0,1,2.005,2.949A13.811,13.811,0,0,1,158.5,28.155Z" transform="translate(-60.119 1.688)" fill="#fff"/>
      <path id="Path_154" data-name="Path 154" d="M228.524,31.776a7.623,7.623,0,0,1-6.96,0,5.745,5.745,0,0,1-1.887-2.831l-7.077.944a8.352,8.352,0,0,0,2.123,4.482A10.367,10.367,0,0,0,218.97,37.2a19.717,19.717,0,0,0,12.5,0,10.756,10.756,0,0,0,4.364-3.185h-.118a7.2,7.2,0,0,0,1.533-4.836,6.417,6.417,0,0,0-2.005-4.836,12.714,12.714,0,0,0-6.016-2.713L224.16,20.57a4.885,4.885,0,0,1-2.713-1.062,2.509,2.509,0,0,1-.826-1.769,2.433,2.433,0,0,1,1.18-2.005,5.715,5.715,0,0,1,3.067-.826,5.649,5.649,0,0,1,3.3.944,3.912,3.912,0,0,1,1.533,2.477l6.724-.944a8.833,8.833,0,0,0-1.887-4.129,10.52,10.52,0,0,0-4.011-2.713,16.5,16.5,0,0,0-5.78-.944,19.184,19.184,0,0,0-6.134,1.062,8.53,8.53,0,0,0-4.011,2.949,7.112,7.112,0,0,0-1.415,4.6,7.232,7.232,0,0,0,2.005,5.072,11.423,11.423,0,0,0,6.016,2.831l4.836.944a5.954,5.954,0,0,1,2.713,1.062,2.08,2.08,0,0,1,.944,1.769,2.815,2.815,0,0,1-1.18,2.123Z" transform="translate(-46.987 1.724)" fill="#fff"/>
      <path id="Path_155" data-name="Path 155" d="M173.342,38.893h7.667V7.988h11.442V1.5H161.9V7.988h11.442Z" transform="translate(-56.092 0.269)" fill="#fff"/>
      <path id="Path_156" data-name="Path 156" d="M248.339,38.9h2.241a16.284,16.284,0,0,0,2.359-.354l-.826-5.662a4.886,4.886,0,0,0-1.18.118h-1.3a3.088,3.088,0,0,1-2.005-.59,2.411,2.411,0,0,1-.59-1.887v-13.8h5.308v-5.78h-5.308V4.1H239.61v6.842H235.6v5.78h4.011V31.23a8.105,8.105,0,0,0,2.241,5.78,9.683,9.683,0,0,0,6.488,2.005Z" transform="translate(-42.857 0.736)" fill="#fff"/>
      <path id="Path_157" data-name="Path 157" d="M210.614,34.189a9.436,9.436,0,0,0,2.359-4.246L206.132,29h.236a3.473,3.473,0,0,1-1.18,1.887,6.337,6.337,0,0,1-1.887,1.18,8.98,8.98,0,0,1-2.477.354,6.981,6.981,0,0,1-3.421-.826,5.706,5.706,0,0,1-2.241-2.477,9.142,9.142,0,0,1-.826-3.539h19.109V23.455a21.479,21.479,0,0,0-.944-6.134,10.766,10.766,0,0,0-2.831-4.364,11.966,11.966,0,0,0-4.129-2.713,15.537,15.537,0,0,0-5.19-.944,16.89,16.89,0,0,0-7.077,1.769,12.244,12.244,0,0,0-4.718,5.072,17.793,17.793,0,0,0,0,15.1,11.945,11.945,0,0,0,4.718,4.954,15.577,15.577,0,0,0,7.313,1.769,15.988,15.988,0,0,0,5.78-.944A10.367,10.367,0,0,0,210.614,34.189ZM195.161,18.383a5.826,5.826,0,0,1,2.123-2.359,5.333,5.333,0,0,1,3.3-.826,6.543,6.543,0,0,1,3.3.826A5.225,5.225,0,0,1,205.9,18.5a6.339,6.339,0,0,1,.59,2.477H194.572a7.123,7.123,0,0,1,.708-2.6h-.118Z" transform="translate(-51.607 1.67)" fill="#fff"/>
      <path id="Path_158" data-name="Path 158" d="M74.387,47.777h6.488V46.244H74.387V42.351h7.2V40.7H72.5V53.557h9.437V52.024H74.387Z" transform="translate(-72.146 7.309)" fill="#fff"/>
      <path id="Path_159" data-name="Path 159" d="M94.26,40.7H92.255l-3.539,4.954L85.059,40.7H82.936l4.6,6.252L82.7,53.557h2.123L88.6,48.249l3.893,5.308h2.123L89.66,46.952Z" transform="translate(-70.314 7.309)" fill="#fff"/>
      <path id="Path_160" data-name="Path 160" d="M100.4,40.7,94.5,53.557h1.887L97.8,50.373h6.842l1.415,3.185h1.887l-5.9-12.857H100.4Zm-1.887,8.139,2.831-6.37,2.831,6.37H98.511Z" transform="translate(-68.195 7.309)" fill="#fff"/>
      <path id="Path_161" data-name="Path 161" d="M120.768,40.7l-5.308,9.083L110.033,40.7H108.5V53.557h1.769V44.239l4.718,7.785h.826l4.6-7.785v9.319h1.769V40.7Z" transform="translate(-65.681 7.309)" fill="#fff"/>
      <path id="Path_162" data-name="Path 162" d="M134.572,40.7H129.5V53.557h1.887V49.665h3.185c3.3,0,5.426-1.651,5.426-4.482S137.993,40.7,134.572,40.7Zm-.118,7.431h-3.185v-5.78h3.185c2.359,0,3.539,1.062,3.539,2.949s-1.18,2.949-3.539,2.949Z" transform="translate(-61.91 7.309)" fill="#fff"/>
      <path id="Path_163" data-name="Path 163" d="M151.8,45.182c0-2.831-2.005-4.482-5.426-4.482H141.3V53.557h1.887V49.665H147.2l2.831,4.011h2.005l-3.067-4.364a4.118,4.118,0,0,0,2.831-4.129Zm-5.426,2.949h-3.185v-5.78h3.185c2.359,0,3.539,1.062,3.539,2.949s-1.18,2.949-3.539,2.949Z" transform="translate(-59.791 7.309)" fill="#fff"/>
      <path id="Path_164" data-name="Path 164" d="M155.369,47.777h6.488V46.244h-6.488V42.351h7.313V40.7H153.6V53.557h9.319V52.024h-7.549Z" transform="translate(-57.582 7.309)" fill="#fff"/>
      <path id="Path_165" data-name="Path 165" d="M169.672,40.7H164.6V53.557h1.887V49.665h3.185c3.3,0,5.426-1.651,5.426-4.482S173.093,40.7,169.672,40.7Zm-.118,7.431h-3.185v-5.78h3.185c2.359,0,3.539,1.062,3.539,2.949s-1.18,2.949-3.539,2.949Z" transform="translate(-55.607 7.309)" fill="#fff"/>
      <path id="Path_166" data-name="Path 166" d="M180.1,40.7l-5.9,12.857h1.887l1.415-3.185h6.842l1.415,3.185h1.887l-5.9-12.857H180.1Zm-1.887,8.139,2.831-6.37,2.831,6.37h-5.662Z" transform="translate(-53.883 7.309)" fill="#fff"/>
      <path id="Path_167" data-name="Path 167" d="M198.7,45.182c0-2.831-2.005-4.482-5.426-4.482H188.2V53.557h1.887V49.665H194.1l2.831,4.011h2.005l-3.067-4.364a4.118,4.118,0,0,0,2.831-4.129Zm-5.544,2.949h-3.185v-5.78h3.185c2.359,0,3.539,1.062,3.539,2.949s-1.18,2.949-3.539,2.949Z" transform="translate(-51.369 7.309)" fill="#fff"/>
      <path id="Path_168" data-name="Path 168" d="M205.1,40.7l-5.9,12.857h1.887l1.415-3.185h6.842l1.415,3.185h1.887l-5.9-12.857H205.1Zm-1.887,8.139,2.831-6.37,2.831,6.37h-5.662Z" transform="translate(-49.394 7.309)" fill="#fff"/>
      <path id="Path_169" data-name="Path 169" d="M210.5,42.351h4.482V53.557h1.769V42.351h4.482V40.7H210.5Z" transform="translate(-47.364 7.309)" fill="#fff"/>
      <rect id="Rectangle_132" data-name="Rectangle 132" width="1.887" height="12.857" transform="translate(176.819 48.009)" fill="#fff"/>
      <path id="Path_170" data-name="Path 170" d="M233.742,40.6a6.51,6.51,0,0,0-6.842,6.606,6.846,6.846,0,1,0,6.842-6.606Zm0,11.56a4.956,4.956,0,1,1,0-9.908,4.77,4.77,0,0,1,4.954,4.954A4.838,4.838,0,0,1,233.742,52.16Z" transform="translate(-44.419 7.291)" fill="#fff"/>
      <path id="Path_171" data-name="Path 171" d="M251.019,50.255,243.233,40.7H241.7V53.557h1.887V44l7.667,9.555h1.533V40.7h-1.769Z" transform="translate(-41.762 7.309)" fill="#fff"/>
      <path id="Path_172" data-name="Path 172" d="M254.3,5.3h2.359V11.9h1.533V5.3h2.359V4H254.3Z" transform="translate(-39.499 0.718)" fill="#fff"/>
      <path id="Path_173" data-name="Path 173" d="M266.29,4l-1.416,5.308L263.459,4H261.1v7.9h1.415V5.651l1.533,6.252h1.533l1.533-6.252V11.9h1.533V4Z" transform="translate(-38.278 0.718)" fill="#fff"/>
    </g>
  </g>
</svg>
